<svg xmlns="http://www.w3.org/2000/svg" width="16" height="16" viewBox="0 0 16 16"><g class="nc-icon-wrapper" fill="#ffffff"><path data-color="color-2" d="M2.765,9.692a1,1,0,0,0-1.9.616,7.469,7.469,0,0,0,.716,1.567,1,1,0,1,0,1.711-1.034A5.517,5.517,0,0,1,2.765,9.692Z" fill="#ffffff"></path><path data-color="color-2" d="M7.91,13.5a5.455,5.455,0,0,1-2.3-.545,1,1,0,1,0-.871,1.8,7.438,7.438,0,0,0,3.141.745H7.9a1,1,0,0,0,.015-2Z" fill="#ffffff"></path><path data-color="color-2" d="M14,10.7a1,1,0,0,0-1.383.294,5.568,5.568,0,0,1-1.686,1.662A1,1,0,1,0,12,14.348a7.562,7.562,0,0,0,2.3-2.265A1,1,0,0,0,14,10.7Z" fill="#ffffff"></path><path d="M8,.5A7.511,7.511,0,0,0,3.923,1.713L2.436.155a.5.5,0,0,0-.849.234L.263,6.194a.5.5,0,0,0,.487.612A.486.486,0,0,0,.842,6.8L6.673,5.712a.5.5,0,0,0,.269-.837l-1.6-1.681A5.49,5.49,0,0,1,13.5,8a1,1,0,0,0,2,0A7.508,7.508,0,0,0,8,.5Z" fill="#ffffff"></path></g></svg>